<svg width="48" height="48" viewBox="0 0 48 48" fill="none" xmlns="http://www.w3.org/2000/svg">
<path d="M12 16C12 15.4477 12.4477 15 13 15H35C35.5523 15 36 15.4477 36 16C36 16.5523 35.5523 17 35 17H13C12.4477 17 12 16.5523 12 16Z" fill="#3A3A3A"/>
<path d="M12 24C12 23.4477 12.4477 23 13 23H35C35.5523 23 36 23.4477 36 24C36 24.5523 35.5523 25 35 25H13C12.4477 25 12 24.5523 12 24Z" fill="#3A3A3A"/>
<path d="M12 32C12 31.4477 12.4477 31 13 31H35C35.5523 31 36 31.4477 36 32C36 32.5523 35.5523 33 35 33H13C12.4477 33 12 32.5523 12 32Z" fill="#3A3A3A"/>
</svg>
