<svg width="48" height="48" viewBox="0 0 48 48" fill="none" xmlns="http://www.w3.org/2000/svg">
<path d="M8 10H15L19.0833 27.1429H36L38 15" stroke="#3A3A3A" stroke-width="1.5" stroke-linecap="round" stroke-linejoin="round"/>
<path d="M38.138 14.8799H21.418" stroke="#3A3A3A" stroke-width="1.5" stroke-linecap="round" stroke-linejoin="round"/>
<path d="M24.7513 34.286C24.7513 35.9086 23.4042 37.2503 21.7096 37.2503C20.0151 37.2503 18.668 35.9086 18.668 34.286C18.668 32.6633 20.0151 31.3217 21.7096 31.3217C23.4042 31.3217 24.7513 32.6633 24.7513 34.286Z" stroke="#3A3A3A" stroke-width="1.5"/>
<path d="M36.4154 34.286C36.4154 35.9086 35.0682 37.2503 33.3737 37.2503C31.6792 37.2503 30.332 35.9086 30.332 34.286C30.332 32.6633 31.6792 31.3217 33.3737 31.3217C35.0682 31.3217 36.4154 32.6633 36.4154 34.286Z" stroke="#3A3A3A" stroke-width="1.5"/>
</svg>
