<svg width="160" height="110" viewBox="0 0 160 110" fill="none" xmlns="http://www.w3.org/2000/svg">
<g clip-path="url(#clip0)">
<path d="M135.27 16.7266H102.543L108.976 79.567H128.837L135.27 16.7266Z" stroke="#0055B8" stroke-width="2" stroke-miterlimit="10" stroke-linecap="round" stroke-linejoin="round"/>
<path d="M127.742 92.268H110.067C109.463 92.268 108.973 91.7782 108.973 91.1746V79.5664H128.833V91.1746C128.836 91.7782 128.346 92.268 127.742 92.268Z" stroke="#0055B8" stroke-width="2" stroke-miterlimit="10" stroke-linecap="round" stroke-linejoin="round"/>
<path d="M108.977 87.7773H128.837" stroke="#0055B8" stroke-width="2" stroke-miterlimit="10" stroke-linecap="round" stroke-linejoin="round"/>
<path d="M122.303 87.6976C122.303 86.1464 120.782 84.8867 118.905 84.8867C117.029 84.8867 115.508 86.1464 115.508 87.6976C115.511 90.3219 122.303 90.3219 122.303 87.6976Z" stroke="#0055B8" stroke-width="2" stroke-miterlimit="10" stroke-linecap="round" stroke-linejoin="round"/>
<path d="M90.2695 92.1179L88.8947 92.2608C88.5795 92.2958 88.486 92.1966 88.4569 91.8963C88.3255 90.5462 88.1796 89.202 88.0365 87.8519C88.0219 87.7207 87.9811 87.3213 87.9665 87.1871L87.0966 88.2398C86.2852 89.2253 85.2285 89.3915 83.9821 89.1962C83.2144 89.0766 82.4672 88.8987 81.7287 88.6946L74.0402 86.7585C73.4856 86.5864 72.9222 86.4669 72.3326 86.4407C71.7546 86.4144 71.1709 86.4494 70.5929 86.499C68.5438 86.6798 66.5326 87.0763 64.5419 87.5924C64.0399 87.7236 63.529 87.8257 63.0182 87.9161C60.5838 88.3476 58.1582 88.8259 55.715 89.1816C53.4645 89.5082 51.2023 89.7589 48.9372 89.9397C46.03 90.1701 43.1139 90.3071 40.2008 90.4675C36.2632 90.6862 32.3255 90.8932 28.3878 91.0915C27.5939 91.1323 26.8029 91.0828 26.0673 90.7241C24.9902 90.2022 24.637 88.9716 24.7508 87.9132C24.8793 86.7147 25.647 86.0849 26.7182 85.7612C27.2845 85.5892 27.8595 85.4376 28.4433 85.3472C33.4639 84.557 38.4845 83.7872 43.5051 83.0057C47.5274 82.3788 51.5584 81.8452 55.6216 81.5799C57.335 81.4691 59.0543 81.4545 60.7736 81.4166C61.9849 81.3903 63.1963 81.3728 64.4077 81.3991C66.2378 81.4399 68.0622 81.4486 69.8836 81.2416C71.1037 81.1046 72.2771 80.8246 73.3571 80.2415L80.4706 76.7249C81.5419 76.1767 82.654 75.7189 83.8332 75.4157C84.4112 75.267 84.9308 75.4886 85.4095 75.7918C85.5496 75.8822 85.6839 75.9813 85.821 76.0805L86.8923 76.9873C86.758 75.6635 86.5508 73.704 86.4107 72.3831C86.3523 71.8087 86.3523 71.8087 86.9069 71.7504L88.0978 71.625" stroke="#0055B8" stroke-width="2" stroke-miterlimit="10" stroke-linecap="round" stroke-linejoin="round"/>
<path d="M85.0964 85.5726C86.9035 85.5726 88.3685 84.1091 88.3685 82.3039C88.3685 80.4986 86.9035 79.0352 85.0964 79.0352C83.2892 79.0352 81.8242 80.4986 81.8242 82.3039C81.8242 84.1091 83.2892 85.5726 85.0964 85.5726Z" stroke="#0055B8" stroke-width="2" stroke-miterlimit="10" stroke-linecap="round" stroke-linejoin="round"/>
<path d="M92.832 71.1328L94.9891 91.6228" stroke="#0055B8" stroke-width="2" stroke-miterlimit="10" stroke-linecap="round" stroke-linejoin="round"/>
<path d="M90.3789 71.3906L92.5331 91.8835" stroke="#0055B8" stroke-width="2" stroke-miterlimit="10" stroke-linecap="round" stroke-linejoin="round"/>
<path d="M42.3477 83.1992L43.0949 90.3111" stroke="#0055B8" stroke-width="2" stroke-miterlimit="10" stroke-linecap="round" stroke-linejoin="round"/>
<path d="M39.5312 83.6278V34.8828H64.2781V81.4001" stroke="#0055B8" stroke-width="2" stroke-miterlimit="10" stroke-linecap="round" stroke-linejoin="round"/>
<path d="M64.2781 87.6641V91.2302C64.2781 91.8017 63.814 92.2653 63.2419 92.2653H40.5675C39.9954 92.2653 39.5312 91.8017 39.5312 91.2302V90.51" stroke="#0055B8" stroke-width="2" stroke-miterlimit="10" stroke-linecap="round" stroke-linejoin="round"/>
<path d="M64.2781 38.4766H39.5312" stroke="#0055B8" stroke-width="2" stroke-miterlimit="10" stroke-linecap="round" stroke-linejoin="round"/>
<path d="M63.425 34.8848H40.3828L41.746 21.3492C41.8569 20.2354 42.7092 19.3344 43.8184 19.1623L59.2538 16.7567C60.6666 16.5351 61.9713 17.5615 62.091 18.9844L63.425 34.8848Z" stroke="#0055B8" stroke-width="2" stroke-miterlimit="10" stroke-linecap="round" stroke-linejoin="round"/>
<path d="M60.082 22.4766L60.3535 25.7161" stroke="#0055B8" stroke-width="2" stroke-miterlimit="10" stroke-linecap="round" stroke-linejoin="round"/>
</g>
<defs>
<clipPath id="clip0">
<rect x="24" y="16" width="112" height="77" fill="white"/>
</clipPath>
</defs>
</svg>
