<svg width="160" height="110" viewBox="0 0 160 110" fill="none" xmlns="http://www.w3.org/2000/svg">
<g clip-path="url(#clip0)">
<path d="M106.036 26.0586H32.168V67.3073H106.036V26.0586Z" stroke="#0055B8" stroke-width="2.10259" stroke-miterlimit="10" stroke-linecap="round" stroke-linejoin="round"/>
<path d="M111.504 67.3051H140.457V54.3279C140.457 44.042 132.118 35.7031 121.832 35.7031H111.504V67.3051V67.3051Z" stroke="#0055B8" stroke-width="2.10259" stroke-miterlimit="10" stroke-linecap="round" stroke-linejoin="round"/>
<path d="M38.5809 84.4625C42.1226 84.4625 44.9938 81.5914 44.9938 78.0496C44.9938 74.5079 42.1226 71.6367 38.5809 71.6367C35.0391 71.6367 32.168 74.5079 32.168 78.0496C32.168 81.5914 35.0391 84.4625 38.5809 84.4625Z" stroke="#0055B8" stroke-width="2.10259" stroke-miterlimit="10" stroke-linecap="round" stroke-linejoin="round"/>
<path d="M56.2723 84.4625C59.814 84.4625 62.6852 81.5914 62.6852 78.0496C62.6852 74.5079 59.814 71.6367 56.2723 71.6367C52.7305 71.6367 49.8594 74.5079 49.8594 78.0496C49.8594 81.5914 52.7305 84.4625 56.2723 84.4625Z" stroke="#0055B8" stroke-width="2.10259" stroke-miterlimit="10" stroke-linecap="round" stroke-linejoin="round"/>
<path d="M99.6278 84.4625C103.17 84.4625 106.041 81.5914 106.041 78.0496C106.041 74.5079 103.17 71.6367 99.6278 71.6367C96.086 71.6367 93.2148 74.5079 93.2148 78.0496C93.2148 81.5914 96.086 84.4625 99.6278 84.4625Z" stroke="#0055B8" stroke-width="2.10259" stroke-miterlimit="10" stroke-linecap="round" stroke-linejoin="round"/>
<path d="M123.175 84.4625C126.716 84.4625 129.588 81.5914 129.588 78.0496C129.588 74.5079 126.716 71.6367 123.175 71.6367C119.633 71.6367 116.762 74.5079 116.762 78.0496C116.762 81.5914 119.633 84.4625 123.175 84.4625Z" stroke="#0055B8" stroke-width="2.10259" stroke-miterlimit="10" stroke-linecap="round" stroke-linejoin="round"/>
<path d="M21.4062 39.5352H56.2756" stroke="#0055B8" stroke-width="2.10259" stroke-miterlimit="10" stroke-linecap="round" stroke-linejoin="round"/>
<path d="M42.0195 48.5H59.4542" stroke="#0055B8" stroke-width="2.10259" stroke-miterlimit="10" stroke-linecap="round" stroke-linejoin="round"/>
<path d="M18.8008 56.7969H27.5181" stroke="#0055B8" stroke-width="2.10259" stroke-miterlimit="10" stroke-linecap="round" stroke-linejoin="round"/>
</g>
<defs>
<clipPath id="clip0">
<rect x="17.75" y="25.0078" width="123.763" height="60.5042" fill="white"/>
</clipPath>
</defs>
</svg>
