<svg width="26" height="26" viewBox="0 0 26 26" fill="none" xmlns="http://www.w3.org/2000/svg">
<path d="M24.8867 4.77854C24.5668 3.95446 24.1402 3.25641 23.4421 2.55836C22.7441 1.86032 22.0461 1.43373 21.222 1.11379C20.427 0.803551 19.5059 0.590259 18.1777 0.532088C16.8398 0.473918 16.4132 0.454529 13.0005 0.454529C9.58786 0.454529 9.16127 0.464223 7.82335 0.532088C6.48543 0.590259 5.57409 0.803551 4.77909 1.11379C3.95501 1.43373 3.25696 1.86032 2.55891 2.55836C1.86087 3.25641 1.43428 3.95446 1.11434 4.77854C0.804102 5.57354 0.59081 6.49457 0.532639 7.8228C0.474469 9.16072 0.455078 9.58731 0.455078 13C0.455078 16.4127 0.464774 16.8392 0.532639 18.1772C0.59081 19.5151 0.804102 20.4264 1.11434 21.2214C1.43428 22.0455 1.86087 22.7436 2.55891 23.4416C3.25696 24.1396 3.95501 24.5662 4.77909 24.8862C5.57409 25.1964 6.49512 25.4097 7.82335 25.4679C9.16127 25.526 9.58786 25.5454 13.0005 25.5454C16.4132 25.5454 16.8398 25.5357 18.1777 25.4679C19.5156 25.4097 20.427 25.1964 21.222 24.8862C22.0461 24.5662 22.7441 24.1396 23.4421 23.4416C24.1402 22.7436 24.5668 22.0455 24.8867 21.2214C25.197 20.4264 25.4103 19.5054 25.4684 18.1772C25.5266 16.8392 25.546 16.4127 25.546 13C25.546 9.58731 25.5363 9.16072 25.4684 7.8228C25.4103 6.48488 25.197 5.57354 24.8867 4.77854ZM23.2095 18.0705C23.1513 19.2921 22.9477 19.9611 22.7732 20.3973C22.5502 20.979 22.269 21.4056 21.8328 21.8419C21.3965 22.2782 20.9796 22.5497 20.3882 22.7823C19.9422 22.9568 19.283 23.1604 18.0614 23.2186C16.7331 23.2768 16.3453 23.2962 12.9908 23.2962C9.63633 23.2962 9.23883 23.2865 7.9203 23.2186C6.69872 23.1604 6.02976 22.9568 5.59348 22.7823C5.01177 22.5593 4.58519 22.2782 4.14891 21.8419C3.71263 21.4056 3.44117 20.9887 3.20849 20.3973C3.03397 19.9514 2.83038 19.2921 2.77221 18.0705C2.71404 16.7423 2.69465 16.3448 2.69465 13C2.69465 9.65517 2.70434 9.24798 2.77221 7.92945C2.83038 6.70787 3.03397 6.0389 3.20849 5.60263C3.43147 5.02092 3.71263 4.59433 4.14891 4.15806C4.58519 3.72178 5.00208 3.45031 5.59348 3.21763C6.03945 3.04312 6.69872 2.83952 7.9203 2.78135C9.24853 2.72318 9.64603 2.70379 12.9908 2.70379C16.3356 2.70379 16.7428 2.71349 18.0614 2.78135C19.283 2.83952 19.9519 3.04312 20.3882 3.21763C20.9699 3.44062 21.3965 3.72178 21.8328 4.15806C22.269 4.59433 22.5405 5.01122 22.7732 5.60263C22.9477 6.0486 23.1513 6.70787 23.2095 7.92945C23.2676 9.25768 23.287 9.65517 23.287 13C23.287 16.3448 23.2676 16.752 23.2095 18.0705Z" fill="#CECECE"/>
<path d="M12.9902 6.55255C9.43211 6.55255 6.54297 9.44169 6.54297 12.9998C6.54297 16.5579 9.43211 19.447 12.9902 19.447C16.5483 19.447 19.4374 16.5579 19.4374 12.9998C19.4374 9.44169 16.5483 6.55255 12.9902 6.55255ZM12.9902 17.1881C10.6828 17.1881 8.80193 15.3169 8.80193 12.9998C8.80193 10.6924 10.6731 8.81151 12.9902 8.81151C15.3073 8.81151 17.1785 10.6827 17.1785 12.9998C17.1785 15.3072 15.2976 17.1881 12.9902 17.1881Z" fill="#CECECE"/>
<path d="M19.6902 7.80339C20.5202 7.80339 21.193 7.13059 21.193 6.30065C21.193 5.47071 20.5202 4.79791 19.6902 4.79791C18.8603 4.79791 18.1875 5.47071 18.1875 6.30065C18.1875 7.13059 18.8603 7.80339 19.6902 7.80339Z" fill="#CECECE"/>
</svg>
